# xmcd CD database file
# Copyright (C) 2004 Ti Kan
# 
# Track frame offsets:
#     150
#     11962
#     24490
#     39067
#     52074
#     63774
#     74065
#     89045
#     100251
#     112732
#     126359
#     151747
#     167041
#     181373
#     195440
#     208649
#     218668
#     233949
#     248946
#     260361
#     271817
#     285816
#     298347
#     312790
# 
# Disc length: 4357 seconds
# 
# Revision: 1
# Processed by: cddbd v1.5.1PL0 Copyright (c) Steve Scherf et al.
# Submitted via: DiscPlay 4.0.4
# 
DISCID=57110318
DTITLE=Muddy Waters - Screamin' and Cryin'
DYEAR=1900
DGENRE=
TTITLE0=Gypsy Woman
TTITLE1=I Can't Be Satisfied
TTITLE2=I Feel Like Going Home
TTITLE3=Train Fare Home
TTITLE4=You're Gonna Miss Me
TTITLE5=Mean Red Spider
TTITLE6=Streamline Woman
TTITLE7=Muddy Jumps One
TTITLE8=Canary Bird
TTITLE9=Walking Blues
TTITLE10=Rollin' and Tumblin'
TTITLE11=Rollin' Stone
TTITLE12=Screamin' and Cryin'
TTITLE13=You're Gonna Need My Help I Said
TTITLE14=Louisiana Blues
TTITLE15=Evans Shuffle
TTITLE16=Honey Bee
TTITLE17=Still a Fool
TTITLE18=Gone to Main Street
TTITLE19=She's All Right
TTITLE20=Sad, Sad Day
TTITLE21=Turn Your Lamp Down Low
TTITLE22=Blow Wind Blow
TTITLE23=Mad Love
EXTD=
EXTT0=
EXTT1=
EXTT2=
EXTT3=
EXTT4=
EXTT5=
EXTT6=
EXTT7=
EXTT8=
EXTT9=
EXTT10=
EXTT11=
EXTT12=
EXTT13=
EXTT14=
EXTT15=
EXTT16=
EXTT17=
EXTT18=
EXTT19=
EXTT20=
EXTT21=
EXTT22=
EXTT23=
PLAYORDER=
